<?xml version="1.0" encoding="UTF-8" standalone="no"?>
<!DOCTYPE svg PUBLIC "-//W3C//DTD SVG 1.1//EN"
 "http://www.w3.org/Graphics/SVG/1.1/DTD/svg11.dtd">
<!-- Generated by graphviz version 2.38.0 (20140413.2041)
 -->
<!-- Title: models_diagram Pages: 1 -->
<svg width="1001pt" height="513pt"
 viewBox="0.00 0.00 1000.69 513.00" xmlns="http://www.w3.org/2000/svg" xmlns:xlink="http://www.w3.org/1999/xlink">
<g id="graph0" class="graph" transform="scale(1 1) rotate(0) translate(4 509)">
<title>models_diagram</title>
<polygon fill="none" stroke="none" points="-4,4 -4,-509 996.688,-509 996.688,4 -4,4"/>
<!-- _diagram_info -->
<g id="node1" class="node"><title>_diagram_info</title>
<text text-anchor="start" x="8" y="-490.6" font-family="Times,serif" font-size="13.00">Models diagram</text>
<text text-anchor="start" x="8" y="-477.6" font-family="Times,serif" font-size="13.00">Date: Jan 07 2016 &#45; 11:39</text>
<text text-anchor="start" x="8" y="-464.6" font-family="Times,serif" font-size="13.00">Migration version: 20160103235936</text>
<text text-anchor="start" x="8" y="-451.6" font-family="Times,serif" font-size="13.00">Generated by RailRoady 1.4.2</text>
<text text-anchor="start" x="8" y="-438.6" font-family="Times,serif" font-size="13.00">http://railroady.prestonlee.com</text>
</g>
<!-- Answer -->
<g id="node2" class="node"><title>Answer</title>
<ellipse fill="none" stroke="black" cx="105.688" cy="-90" rx="37.7266" ry="18"/>
<text text-anchor="middle" x="105.688" y="-85.8" font-family="Times,serif" font-size="14.00">Answer</text>
</g>
<!-- Intervention -->
<g id="node10" class="node"><title>Intervention</title>
<ellipse fill="none" stroke="black" cx="105.688" cy="-18" rx="53.1539" ry="18"/>
<text text-anchor="middle" x="105.688" y="-13.8" font-family="Times,serif" font-size="14.00">Intervention</text>
</g>
<!-- Answer&#45;&gt;Intervention -->
<g id="edge1" class="edge"><title>Answer&#45;&gt;Intervention</title>
<path fill="none" stroke="#b44f06" d="M105.688,-61.6651C105.688,-56.6867 105.688,-51.4906 105.688,-46.5072"/>
<polygon fill="#b44f06" stroke="#b44f06" points="105.688,-61.6966 101.188,-71.6966 105.688,-66.6966 105.688,-71.6966 105.688,-71.6966 105.688,-71.6966 105.688,-66.6966 110.188,-71.6967 105.688,-61.6966 105.688,-61.6966"/>
<polygon fill="#b44f06" stroke="#b44f06" points="105.688,-46.1043 110.188,-36.1043 105.688,-41.1043 105.688,-36.1043 105.688,-36.1043 105.688,-36.1043 105.688,-41.1043 101.188,-36.1044 105.688,-46.1043 105.688,-46.1043"/>
</g>
<!-- Arcticle -->
<g id="node3" class="node"><title>Arcticle</title>
<ellipse fill="none" stroke="black" cx="336.688" cy="-468.5" rx="38.6695" ry="18"/>
<text text-anchor="middle" x="336.688" y="-464.3" font-family="Times,serif" font-size="14.00">Arcticle</text>
</g>
<!-- Attempt -->
<g id="node4" class="node"><title>Attempt</title>
<ellipse fill="none" stroke="black" cx="357.688" cy="-18" rx="39.18" ry="18"/>
<text text-anchor="middle" x="357.688" y="-13.8" font-family="Times,serif" font-size="14.00">Attempt</text>
</g>
<!-- AttemptedQuestion -->
<g id="node5" class="node"><title>AttemptedQuestion</title>
<ellipse fill="none" stroke="black" cx="278.688" cy="-90" rx="79.2385" ry="18"/>
<text text-anchor="middle" x="278.688" y="-85.8" font-family="Times,serif" font-size="14.00">AttemptedQuestion</text>
</g>
<!-- CommonError -->
<g id="node6" class="node"><title>CommonError</title>
<ellipse fill="none" stroke="black" cx="454.688" cy="-468.5" rx="61.8736" ry="18"/>
<text text-anchor="middle" x="454.688" y="-464.3" font-family="Times,serif" font-size="14.00">CommonError</text>
</g>
<!-- Flashcard -->
<g id="node7" class="node"><title>Flashcard</title>
<ellipse fill="none" stroke="black" cx="525.688" cy="-162" rx="44.475" ry="18"/>
<text text-anchor="middle" x="525.688" y="-157.8" font-family="Times,serif" font-size="14.00">Flashcard</text>
</g>
<!-- Improvement -->
<g id="node9" class="node"><title>Improvement</title>
<ellipse fill="none" stroke="black" cx="631.688" cy="-90" rx="57.9979" ry="18"/>
<text text-anchor="middle" x="631.688" y="-85.8" font-family="Times,serif" font-size="14.00">Improvement</text>
</g>
<!-- Flashcard&#45;&gt;Improvement -->
<g id="edge2" class="edge"><title>Flashcard&#45;&gt;Improvement</title>
<path fill="none" stroke="#546f4d" d="M554.809,-141.769C568.67,-132.616 585.285,-121.644 599.516,-112.245"/>
<ellipse fill="none" stroke="#546f4d" cx="551.247" cy="-144.121" rx="4.00002" ry="4.00002"/>
<polygon fill="#546f4d" stroke="#546f4d" points="599.679,-112.138 610.504,-110.382 603.852,-109.382 608.024,-106.627 608.024,-106.627 608.024,-106.627 603.852,-109.382 605.544,-102.872 599.679,-112.138 599.679,-112.138"/>
</g>
<!-- Keypoint -->
<g id="node11" class="node"><title>Keypoint</title>
<ellipse fill="none" stroke="black" cx="499.688" cy="-90" rx="43.0387" ry="18"/>
<text text-anchor="middle" x="499.688" y="-85.8" font-family="Times,serif" font-size="14.00">Keypoint</text>
</g>
<!-- Flashcard&#45;&gt;Keypoint -->
<g id="edge3" class="edge"><title>Flashcard&#45;&gt;Keypoint</title>
<path fill="none" stroke="#e0055f" d="M516.605,-136.548C514.387,-130.574 512,-124.148 509.739,-118.061"/>
<ellipse fill="none" stroke="#e0055f" cx="518.001" cy="-140.305" rx="4.00001" ry="4.00001"/>
<polygon fill="#e0055f" stroke="#e0055f" points="509.586,-117.65 510.323,-106.708 507.845,-112.962 506.104,-108.275 506.104,-108.275 506.104,-108.275 507.845,-112.962 501.886,-109.842 509.586,-117.65 509.586,-117.65"/>
</g>
<!-- Image -->
<g id="node8" class="node"><title>Image</title>
<ellipse fill="none" stroke="black" cx="566.688" cy="-468.5" rx="32.4063" ry="18"/>
<text text-anchor="middle" x="566.688" y="-464.3" font-family="Times,serif" font-size="14.00">Image</text>
</g>
<!-- Review -->
<g id="node19" class="node"><title>Review</title>
<ellipse fill="none" stroke="black" cx="631.688" cy="-18" rx="37.2421" ry="18"/>
<text text-anchor="middle" x="631.688" y="-13.8" font-family="Times,serif" font-size="14.00">Review</text>
</g>
<!-- Improvement&#45;&gt;Review -->
<g id="edge4" class="edge"><title>Improvement&#45;&gt;Review</title>
<path fill="none" stroke="#4d54b5" d="M631.688,-63.6398C631.688,-58.0629 631.688,-52.1319 631.688,-46.4761"/>
<ellipse fill="none" stroke="#4d54b5" cx="631.688" cy="-67.6966" rx="4" ry="4"/>
<polygon fill="#4d54b5" stroke="#4d54b5" points="631.688,-46.1043 636.188,-36.1043 631.688,-41.1043 631.688,-36.1043 631.688,-36.1043 631.688,-36.1043 631.688,-41.1043 627.188,-36.1044 631.688,-46.1043 631.688,-46.1043"/>
</g>
<!-- Keypoint&#45;&gt;Attempt -->
<g id="edge5" class="edge"><title>Keypoint&#45;&gt;Attempt</title>
<path fill="none" stroke="#2b28cf" d="M465.756,-72.2731C443.604,-61.3531 414.762,-47.1352 392.446,-36.1345"/>
<ellipse fill="none" stroke="#2b28cf" cx="469.391" cy="-74.0649" rx="4.00002" ry="4.00002"/>
<polygon fill="#2b28cf" stroke="#2b28cf" points="392.29,-36.0575 385.31,-27.5997 387.805,-33.8467 383.321,-31.6359 383.321,-31.6359 383.321,-31.6359 387.805,-33.8467 381.331,-35.6722 392.29,-36.0575 392.29,-36.0575"/>
</g>
<!-- Lesson -->
<g id="node12" class="node"><title>Lesson</title>
<ellipse fill="none" stroke="black" cx="651.688" cy="-468.5" rx="35.3216" ry="18"/>
<text text-anchor="middle" x="651.688" y="-464.3" font-family="Times,serif" font-size="14.00">Lesson</text>
</g>
<!-- Line -->
<g id="node13" class="node"><title>Line</title>
<ellipse fill="none" stroke="black" cx="405.688" cy="-90" rx="27" ry="18"/>
<text text-anchor="middle" x="405.688" y="-85.8" font-family="Times,serif" font-size="14.00">Line</text>
</g>
<!-- MainQuestion -->
<g id="node14" class="node"><title>MainQuestion</title>
<ellipse fill="none" stroke="black" cx="318.688" cy="-306" rx="60.9133" ry="18"/>
<text text-anchor="middle" x="318.688" y="-301.8" font-family="Times,serif" font-size="14.00">MainQuestion</text>
</g>
<!-- Objective -->
<g id="node16" class="node"><title>Objective</title>
<ellipse fill="none" stroke="black" cx="427.688" cy="-234" rx="44.4664" ry="18"/>
<text text-anchor="middle" x="427.688" y="-229.8" font-family="Times,serif" font-size="14.00">Objective</text>
</g>
<!-- MainQuestion&#45;&gt;Objective -->
<g id="edge7" class="edge"><title>MainQuestion&#45;&gt;Objective</title>
<path fill="none" stroke="#56daa6" d="M351.554,-283.893C365.731,-274.789 382.24,-264.186 396.254,-255.187"/>
<polygon fill="#56daa6" stroke="#56daa6" points="351.293,-284.061 340.447,-285.678 347.086,-286.763 342.878,-289.465 342.878,-289.465 342.878,-289.465 347.086,-286.763 345.31,-293.251 351.293,-284.061 351.293,-284.061"/>
<polygon fill="#56daa6" stroke="#56daa6" points="396.639,-254.94 407.485,-253.322 400.846,-252.238 405.053,-249.536 405.053,-249.536 405.053,-249.536 400.846,-252.238 402.622,-245.749 396.639,-254.94 396.639,-254.94"/>
</g>
<!-- Question -->
<g id="node18" class="node"><title>Question</title>
<ellipse fill="none" stroke="black" cx="241.688" cy="-162" rx="42.0784" ry="18"/>
<text text-anchor="middle" x="241.688" y="-157.8" font-family="Times,serif" font-size="14.00">Question</text>
</g>
<!-- MainQuestion&#45;&gt;Question -->
<g id="edge6" class="edge"><title>MainQuestion&#45;&gt;Question</title>
<path fill="none" stroke="#d0dfcf" d="M317.035,-279.798C314.892,-261.137 309.975,-235.649 298.688,-216 291.731,-203.888 281.099,-192.916 270.894,-184.139"/>
<ellipse fill="none" stroke="#d0dfcf" cx="317.44" cy="-283.866" rx="4" ry="4"/>
<polygon fill="#d0dfcf" stroke="#d0dfcf" points="270.623,-183.917 265.727,-174.105 266.751,-180.754 262.88,-177.59 262.88,-177.59 262.88,-177.59 266.751,-180.754 260.032,-181.074 270.623,-183.917 270.623,-183.917"/>
</g>
<!-- TestPaper -->
<g id="node22" class="node"><title>TestPaper</title>
<ellipse fill="none" stroke="black" cx="244.688" cy="-234" rx="44.701" ry="18"/>
<text text-anchor="middle" x="244.688" y="-229.8" font-family="Times,serif" font-size="14.00">TestPaper</text>
</g>
<!-- MainQuestion&#45;&gt;TestPaper -->
<g id="edge8" class="edge"><title>MainQuestion&#45;&gt;TestPaper</title>
<path fill="none" stroke="#1c5cf4" d="M293.707,-281.369C285.707,-273.802 276.865,-265.438 268.92,-257.922"/>
<polygon fill="#1c5cf4" stroke="#1c5cf4" points="293.886,-281.539 298.058,-291.68 297.518,-284.975 301.151,-288.411 301.151,-288.411 301.151,-288.411 297.518,-284.975 304.243,-285.142 293.886,-281.539 293.886,-281.539"/>
<polygon fill="#1c5cf4" stroke="#1c5cf4" points="268.601,-257.621 264.429,-247.48 264.969,-254.185 261.337,-250.749 261.337,-250.749 261.337,-250.749 264.969,-254.185 258.244,-254.018 268.601,-257.621 268.601,-257.621"/>
</g>
<!-- ModulePack -->
<g id="node15" class="node"><title>ModulePack</title>
<ellipse fill="none" stroke="black" cx="759.688" cy="-468.5" rx="54.6162" ry="18"/>
<text text-anchor="middle" x="759.688" y="-464.3" font-family="Times,serif" font-size="14.00">ModulePack</text>
</g>
<!-- Objective&#45;&gt;Flashcard -->
<g id="edge12" class="edge"><title>Objective&#45;&gt;Flashcard</title>
<path fill="none" stroke="#e4c6d8" d="M455.85,-212.884C468.532,-203.826 483.502,-193.133 496.323,-183.975"/>
<ellipse fill="none" stroke="#e4c6d8" cx="452.207" cy="-215.486" rx="4.00002" ry="4.00002"/>
<polygon fill="#e4c6d8" stroke="#e4c6d8" points="496.664,-183.731 507.417,-181.581 500.733,-180.825 504.801,-177.919 504.801,-177.919 504.801,-177.919 500.733,-180.825 502.186,-174.257 496.664,-183.731 496.664,-183.731"/>
</g>
<!-- Objective&#45;&gt;Line -->
<g id="edge9" class="edge"><title>Objective&#45;&gt;Line</title>
<path fill="none" stroke="#bce306" d="M434.002,-207.719C437.463,-189.696 440.066,-165.034 434.688,-144 432.169,-134.149 427.4,-124.159 422.445,-115.548"/>
<ellipse fill="none" stroke="#bce306" cx="433.088" cy="-212.073" rx="4.00001" ry="4.00001"/>
<polygon fill="#bce306" stroke="#bce306" points="422.32,-115.343 420.931,-104.466 419.707,-111.08 417.094,-106.817 417.094,-106.817 417.094,-106.817 419.707,-111.08 413.257,-109.168 422.32,-115.343 422.32,-115.343"/>
</g>
<!-- ObjectiveState -->
<g id="node17" class="node"><title>ObjectiveState</title>
<ellipse fill="none" stroke="black" cx="363.688" cy="-162" rx="62.3321" ry="18"/>
<text text-anchor="middle" x="363.688" y="-157.8" font-family="Times,serif" font-size="14.00">ObjectiveState</text>
</g>
<!-- Objective&#45;&gt;ObjectiveState -->
<g id="edge11" class="edge"><title>Objective&#45;&gt;ObjectiveState</title>
<path fill="none" stroke="#52aa97" d="M407.33,-210.734C400.56,-203.329 392.985,-195.043 386.07,-187.481"/>
<ellipse fill="none" stroke="#52aa97" cx="410.145" cy="-213.813" rx="4.00002" ry="4.00002"/>
<polygon fill="#52aa97" stroke="#52aa97" points="385.643,-187.014 382.217,-176.597 382.269,-183.324 378.895,-179.633 378.895,-179.633 378.895,-179.633 382.269,-183.324 375.574,-182.67 385.643,-187.014 385.643,-187.014"/>
</g>
<!-- Objective&#45;&gt;Question -->
<g id="edge10" class="edge"><title>Objective&#45;&gt;Question</title>
<path fill="none" stroke="#6d1547" d="M386.337,-217.438C355.148,-205.7 312.609,-189.691 281.741,-178.074"/>
<polygon fill="#6d1547" stroke="#6d1547" points="386.776,-217.603 394.55,-225.337 391.456,-219.364 396.135,-221.125 396.135,-221.125 396.135,-221.125 391.456,-219.364 397.72,-216.914 386.776,-217.603 386.776,-217.603"/>
<polygon fill="#6d1547" stroke="#6d1547" points="281.517,-177.99 273.743,-170.256 276.837,-176.228 272.158,-174.467 272.158,-174.467 272.158,-174.467 276.837,-176.228 270.573,-178.679 281.517,-177.99 281.517,-177.99"/>
</g>
<!-- Question&#45;&gt;Answer -->
<g id="edge13" class="edge"><title>Question&#45;&gt;Answer</title>
<path fill="none" stroke="#7ceac5" d="M208.597,-143.968C187.639,-133.181 160.61,-119.269 139.512,-108.41"/>
<ellipse fill="none" stroke="#7ceac5" cx="212.231" cy="-145.838" rx="4.00002" ry="4.00002"/>
<polygon fill="#7ceac5" stroke="#7ceac5" points="139.466,-108.386 132.634,-99.8081 135.02,-106.097 130.574,-103.809 130.574,-103.809 130.574,-103.809 135.02,-106.097 128.515,-107.81 139.466,-108.386 139.466,-108.386"/>
</g>
<!-- Question&#45;&gt;AttemptedQuestion -->
<g id="edge14" class="edge"><title>Question&#45;&gt;AttemptedQuestion</title>
<path fill="none" stroke="#b55e19" d="M254.465,-136.827C257.801,-130.515 261.413,-123.681 264.804,-117.266"/>
<ellipse fill="none" stroke="#b55e19" cx="252.514" cy="-140.519" rx="4.00002" ry="4.00002"/>
<polygon fill="#b55e19" stroke="#b55e19" points="264.883,-117.116 273.535,-110.378 267.22,-112.696 269.557,-108.275 269.557,-108.275 269.557,-108.275 267.22,-112.696 265.578,-106.172 264.883,-117.116 264.883,-117.116"/>
</g>
<!-- Question&#45;&gt;Line -->
<g id="edge15" class="edge"><title>Question&#45;&gt;Line</title>
<path fill="none" stroke="#0d1aa4" d="M277.967,-145.731C302.938,-135.193 336.858,-120.825 366.688,-108 369.148,-106.942 371.693,-105.844 374.25,-104.736"/>
<ellipse fill="none" stroke="#0d1aa4" cx="274.204" cy="-147.318" rx="4.00002" ry="4.00002"/>
<polygon fill="#0d1aa4" stroke="#0d1aa4" points="374.259,-104.732 385.224,-104.875 378.845,-102.74 383.431,-100.748 383.431,-100.748 383.431,-100.748 378.845,-102.74 381.637,-96.6204 374.259,-104.732 374.259,-104.732"/>
</g>
<!-- SetGroup -->
<g id="node20" class="node"><title>SetGroup</title>
<ellipse fill="none" stroke="black" cx="876.688" cy="-468.5" rx="44.0078" ry="18"/>
<text text-anchor="middle" x="876.688" y="-464.3" font-family="Times,serif" font-size="14.00">SetGroup</text>
</g>
<!-- Subject -->
<g id="node21" class="node"><title>Subject</title>
<ellipse fill="none" stroke="black" cx="332.688" cy="-378" rx="36.7663" ry="18"/>
<text text-anchor="middle" x="332.688" y="-373.8" font-family="Times,serif" font-size="14.00">Subject</text>
</g>
<!-- Subject&#45;&gt;Improvement -->
<g id="edge16" class="edge"><title>Subject&#45;&gt;Improvement</title>
<path fill="none" stroke="#344f93" d="M372.289,-366.279C400.179,-357.587 437.583,-343.557 466.688,-324 540.264,-274.56 559.926,-256.513 604.688,-180 615.934,-160.777 622.899,-136.432 626.932,-118.065"/>
<ellipse fill="none" stroke="#344f93" cx="368.152" cy="-367.535" rx="4.00001" ry="4.00001"/>
<polygon fill="#344f93" stroke="#344f93" points="626.981,-117.824 633.387,-108.924 627.98,-112.925 628.978,-108.025 628.978,-108.025 628.978,-108.025 627.98,-112.925 624.569,-107.127 626.981,-117.824 626.981,-117.824"/>
</g>
<!-- Subject&#45;&gt;TestPaper -->
<g id="edge18" class="edge"><title>Subject&#45;&gt;TestPaper</title>
<path fill="none" stroke="#22c6c4" d="M296.263,-363.51C278.71,-354.999 259.225,-342.133 248.688,-324 237.854,-305.356 237.633,-280.624 239.68,-261.963"/>
<ellipse fill="none" stroke="#22c6c4" cx="299.999" cy="-365.225" rx="4.00002" ry="4.00002"/>
<polygon fill="#22c6c4" stroke="#22c6c4" points="239.683,-261.942 245.498,-252.645 240.361,-256.988 241.04,-252.035 241.04,-252.035 241.04,-252.035 240.361,-256.988 236.582,-251.424 239.683,-261.942 239.683,-261.942"/>
</g>
<!-- Topic -->
<g id="node23" class="node"><title>Topic</title>
<ellipse fill="none" stroke="black" cx="427.688" cy="-306" rx="30.2342" ry="18"/>
<text text-anchor="middle" x="427.688" y="-301.8" font-family="Times,serif" font-size="14.00">Topic</text>
</g>
<!-- Subject&#45;&gt;Topic -->
<g id="edge17" class="edge"><title>Subject&#45;&gt;Topic</title>
<path fill="none" stroke="#0a6a94" d="M358.954,-357.646C372.082,-347.973 387.934,-336.292 401.105,-326.587"/>
<ellipse fill="none" stroke="#0a6a94" cx="355.592" cy="-360.123" rx="4.00002" ry="4.00002"/>
<polygon fill="#0a6a94" stroke="#0a6a94" points="401.267,-326.468 411.987,-324.158 405.293,-323.502 409.318,-320.536 409.318,-320.536 409.318,-320.536 405.293,-323.502 406.649,-316.913 401.267,-326.468 401.267,-326.468"/>
</g>
<!-- TestPaper&#45;&gt;Question -->
<g id="edge19" class="edge"><title>TestPaper&#45;&gt;Question</title>
<path fill="none" stroke="#278d94" d="M243.601,-207.64C243.362,-202.063 243.108,-196.132 242.865,-190.476"/>
<ellipse fill="none" stroke="#278d94" cx="243.775" cy="-211.7" rx="4" ry="4"/>
<polygon fill="#278d94" stroke="#278d94" points="242.849,-190.095 246.917,-179.912 242.635,-185.1 242.421,-180.104 242.421,-180.104 242.421,-180.104 242.635,-185.1 237.925,-180.297 242.849,-190.095 242.849,-190.095"/>
</g>
<!-- Topic&#45;&gt;Improvement -->
<g id="edge20" class="edge"><title>Topic&#45;&gt;Improvement</title>
<path fill="none" stroke="#a51efe" d="M454.019,-287.452C486.136,-265.155 540.819,-224.217 578.688,-180 595.224,-160.692 609.658,-135.57 619.27,-116.942"/>
<ellipse fill="none" stroke="#a51efe" cx="450.432" cy="-289.919" rx="4.00002" ry="4.00002"/>
<polygon fill="#a51efe" stroke="#a51efe" points="619.346,-116.791 627.862,-109.882 621.594,-112.325 623.842,-107.859 623.842,-107.859 623.842,-107.859 621.594,-112.325 619.823,-105.835 619.346,-116.791 619.346,-116.791"/>
</g>
<!-- Topic&#45;&gt;Objective -->
<g id="edge22" class="edge"><title>Topic&#45;&gt;Objective</title>
<path fill="none" stroke="#94edcc" d="M427.688,-279.64C427.688,-274.063 427.688,-268.132 427.688,-262.476"/>
<ellipse fill="none" stroke="#94edcc" cx="427.688" cy="-283.697" rx="4" ry="4"/>
<polygon fill="#94edcc" stroke="#94edcc" points="427.688,-262.104 432.188,-252.104 427.688,-257.104 427.688,-252.104 427.688,-252.104 427.688,-252.104 427.688,-257.104 423.188,-252.104 427.688,-262.104 427.688,-262.104"/>
</g>
<!-- Topic&#45;&gt;Question -->
<g id="edge21" class="edge"><title>Topic&#45;&gt;Question</title>
<path fill="none" stroke="#0a6d6e" d="M404.687,-285.296C382.924,-266.876 349.146,-238.857 318.688,-216 303.639,-204.707 286.428,-192.772 272.1,-183.093"/>
<ellipse fill="none" stroke="#0a6d6e" cx="407.989" cy="-288.099" rx="4.00002" ry="4.00002"/>
<polygon fill="#0a6d6e" stroke="#0a6d6e" points="271.899,-182.958 266.104,-173.648 267.747,-180.171 263.596,-177.384 263.596,-177.384 263.596,-177.384 267.747,-180.171 261.088,-181.12 271.899,-182.958 271.899,-182.958"/>
</g>
<!-- Unit -->
<g id="node24" class="node"><title>Unit</title>
<ellipse fill="none" stroke="black" cx="965.688" cy="-468.5" rx="27" ry="18"/>
<text text-anchor="middle" x="965.688" y="-464.3" font-family="Times,serif" font-size="14.00">Unit</text>
</g>
<!-- User -->
<g id="node25" class="node"><title>User</title>
<ellipse fill="none" stroke="black" cx="252.688" cy="-468.5" rx="27" ry="18"/>
<text text-anchor="middle" x="252.688" y="-464.3" font-family="Times,serif" font-size="14.00">User</text>
</g>
<!-- User&#45;&gt;Answer -->
<g id="edge26" class="edge"><title>User&#45;&gt;Answer</title>
<path fill="none" stroke="#8b2f20" d="M233.252,-446.723C228.083,-441.657 222.356,-436.427 216.688,-432 192.48,-413.09 177.786,-419.231 157.688,-396 129.547,-363.474 119.688,-350.01 119.688,-307 119.688,-307 119.688,-307 119.688,-233 119.688,-192.802 114.063,-146.511 109.944,-118.002"/>
<ellipse fill="none" stroke="#8b2f20" cx="236.206" cy="-449.697" rx="4.00002" ry="4.00002"/>
<polygon fill="#8b2f20" stroke="#8b2f20" points="109.927,-117.887 112.905,-107.333 109.19,-112.941 108.454,-107.996 108.454,-107.996 108.454,-107.996 109.19,-112.941 104.003,-108.659 109.927,-117.887 109.927,-117.887"/>
</g>
<!-- User&#45;&gt;Attempt -->
<g id="edge25" class="edge"><title>User&#45;&gt;Attempt</title>
<path fill="none" stroke="#3e33ea" d="M234.162,-446.686C210.252,-417.597 171.688,-362.133 171.688,-307 171.688,-307 171.688,-307 171.688,-161 171.688,-120.553 163.507,-101.953 190.688,-72 220.583,-39.0554 270.824,-26.4549 308.408,-21.706"/>
<ellipse fill="none" stroke="#3e33ea" cx="236.741" cy="-449.758" rx="4.00002" ry="4.00002"/>
<polygon fill="#3e33ea" stroke="#3e33ea" points="308.707,-21.6727 319.144,-25.0366 313.676,-21.1185 318.646,-20.5643 318.646,-20.5643 318.646,-20.5643 313.676,-21.1185 318.147,-16.0921 308.707,-21.6727 308.707,-21.6727"/>
</g>
<!-- User&#45;&gt;Improvement -->
<g id="edge23" class="edge"><title>User&#45;&gt;Improvement</title>
<path fill="none" stroke="#2b3d4c" d="M270.918,-446.295C276.229,-441.068 282.326,-435.867 288.688,-432 442.419,-338.554 673.688,-486.904 673.688,-307 673.688,-307 673.688,-307 673.688,-233 673.688,-191.145 656.701,-145.096 644.334,-117.114"/>
<ellipse fill="none" stroke="#2b3d4c" cx="267.851" cy="-449.482" rx="4.00002" ry="4.00002"/>
<polygon fill="#2b3d4c" stroke="#2b3d4c" points="644.331,-117.108 644.283,-106.142 642.259,-112.558 640.187,-108.007 640.187,-108.007 640.187,-108.007 642.259,-112.558 636.092,-109.872 644.331,-117.108 644.331,-117.108"/>
</g>
<!-- User&#45;&gt;Subject -->
<g id="edge24" class="edge"><title>User&#45;&gt;Subject</title>
<path fill="none" stroke="#d3abe3" d="M271.688,-446.481C283.702,-433.191 299.243,-415.999 311.631,-402.294"/>
<ellipse fill="none" stroke="#d3abe3" cx="268.941" cy="-449.52" rx="4.00002" ry="4.00002"/>
<polygon fill="#d3abe3" stroke="#d3abe3" points="311.805,-402.102 321.849,-397.701 315.158,-398.393 318.511,-394.683 318.511,-394.683 318.511,-394.683 315.158,-398.393 315.172,-391.666 311.805,-402.102 311.805,-402.102"/>
</g>
</g>
</svg>
